<svg height="512pt" viewBox="0 0 512 512" width="512pt" xmlns="http://www.w3.org/2000/svg"><path d="m484.476562 0h-456.953124c-15.175782 0-27.523438 12.347656-27.523438 27.523438v456.953124c0 15.175782 12.347656 27.523438 27.523438 27.523438h456.953124c15.175782 0 27.523438-12.347656 27.523438-27.523438v-456.953124c0-15.175782-12.347656-27.523438-27.523438-27.523438zm-186.203124 114.4375v84.273438h-84.410157v-84.273438zm198.714843 183.699219h-84.414062v-84.410157h84.414062zm-99.289062-183.699219v90.363281c-.085938.460938-.136719.933594-.136719 1.417969v91.917969h-84.277344v-84.273438h57.425782c4.144531 0 7.507812-3.359375 7.507812-7.507812 0-4.148438-3.363281-7.507813-7.507812-7.507813h-57.425782v-84.410156zm-84.410157 198.710938h84.410157v84.414062h-84.410157zm84.273438-213.722657h-84.277344v-84.414062h84.277344zm-382.550781 114.296875h84.414062v84.414063h-84.414062zm183.839843 84.414063h-84.414062v-84.273438h84.414062zm-84.414062 15.011719h84.414062v84.414062h-84.414062zm84.414062-114.300782h-84.414062v-84.410156h84.414062zm-99.425781-.136718h-84.414062v-84.273438h84.414062zm-84.414062 114.4375h84.414062v84.414062h-84.414062zm99.425781 99.425781h84.414062v84.410156h-84.414062zm99.425781-99.425781h56.425781c4.144532 0 7.507813-3.359376 7.507813-7.503907 0-4.148437-3.359375-7.507812-7.507813-7.507812h-56.425781v-84.414063h84.410157v183.839844h-84.410157zm99.425781 99.425781h84.273438v84.410156h-84.273438zm99.425782-99.425781h84.273437v84.414062h-84.273437zm84.273437-114.4375h-84.273437v-84.273438h84.273437zm-12.761719-183.699219c7.035157 0 12.761719 5.726562 12.761719 12.761719v71.652343h-84.414062v-84.414062zm-185.953124 0v84.414062h-183.835938v-84.414062h84.414062v55.820312c0 4.144531 3.359376 7.507813 7.503907 7.507813 4.148437 0 7.507812-3.363282 7.507812-7.507813v-55.820312zm-198.847657 0v84.414062h-84.414062v-71.652343c0-7.035157 5.726562-12.761719 12.761719-12.761719zm-71.652343 481.976562c-7.035157 0-12.761719-5.726562-12.761719-12.761719v-71.652343h84.414062v84.414062zm186.089843 0v-84.414062h84.410157v84.414062zm198.710938 0v-84.414062h84.410156v71.652343c0 7.035157-5.722656 12.761719-12.757813 12.761719zm0 0"/><path d="m355.425781 93.746094c20.179688 0 36.597657-16.417969 36.597657-36.597656 0-20.179688-16.417969-36.59375-36.597657-36.59375-20.179687 0-36.597656 16.417968-36.597656 36.59375 0 20.179687 16.417969 36.597656 36.597656 36.597656zm0-58.179688c11.902344 0 21.585938 9.679688 21.585938 21.582032 0 11.902343-9.683594 21.585937-21.585938 21.585937-11.902343 0-21.585937-9.683594-21.585937-21.585937 0-11.902344 9.683594-21.582032 21.585937-21.582032zm0 0"/><path d="m156.644531 418.183594c-20.179687 0-36.597656 16.417968-36.597656 36.597656s16.417969 36.597656 36.597656 36.597656c20.179688 0 36.597657-16.417968 36.597657-36.597656s-16.417969-36.597656-36.597657-36.597656zm0 58.179687c-11.902343 0-21.585937-9.679687-21.585937-21.582031s9.683594-21.585938 21.585937-21.585938c11.902344 0 21.582031 9.683594 21.582031 21.585938s-9.679687 21.582031-21.582031 21.582031zm0 0"/><path d="m454.78125 193.242188c20.179688 0 36.597656-16.417969 36.597656-36.597657 0-20.179687-16.417968-36.597656-36.597656-36.597656s-36.597656 16.417969-36.597656 36.597656c0 20.179688 16.417968 36.597657 36.597656 36.597657zm0-58.183594c11.902344 0 21.585938 9.683594 21.585938 21.585937 0 11.902344-9.683594 21.582031-21.585938 21.582031s-21.585938-9.679687-21.585938-21.582031c0-11.902343 9.683594-21.585937 21.585938-21.585937zm0 0"/><path d="m57.21875 93.816406c20.179688 0 36.597656-16.417968 36.597656-36.597656s-16.417968-36.597656-36.597656-36.597656-36.597656 16.417968-36.597656 36.597656 16.417968 36.597656 36.597656 36.597656zm0-58.183594c11.902344 0 21.585938 9.683594 21.585938 21.585938s-9.683594 21.585938-21.585938 21.585938-21.582031-9.683594-21.582031-21.585938 9.679687-21.585938 21.582031-21.585938zm0 0"/><path d="m156.644531 193.171875c20.179688 0 36.597657-16.417969 36.597657-36.597656 0-20.179688-16.417969-36.597657-36.597657-36.597657-20.179687 0-36.597656 16.417969-36.597656 36.597657 0 20.179687 16.417969 36.597656 36.597656 36.597656zm0-58.183594c11.902344 0 21.582031 9.683594 21.582031 21.585938 0 11.902343-9.679687 21.585937-21.582031 21.585937-11.902343 0-21.585937-9.683594-21.585937-21.585937 0-11.902344 9.683594-21.585938 21.585937-21.585938zm0 0"/><path d="m256 318.757812c-20.179688 0-36.597656 16.417969-36.597656 36.597657 0 20.179687 16.417968 36.597656 36.597656 36.597656s36.597656-16.417969 36.597656-36.597656c0-20.179688-16.417968-36.597657-36.597656-36.597657zm0 58.183594c-11.902344 0-21.585938-9.683594-21.585938-21.585937 0-11.902344 9.683594-21.585938 21.585938-21.585938s21.585938 9.683594 21.585938 21.585938c0 11.902343-9.683594 21.585937-21.585938 21.585937zm0 0"/><path d="m57.21875 318.757812c-20.179688 0-36.597656 16.417969-36.597656 36.597657 0 20.179687 16.417968 36.597656 36.597656 36.597656s36.597656-16.417969 36.597656-36.597656c0-20.179688-16.417968-36.597657-36.597656-36.597657zm0 58.183594c-11.902344 0-21.582031-9.683594-21.582031-21.585937 0-11.902344 9.679687-21.585938 21.582031-21.585938s21.585938 9.683594 21.585938 21.585938c0 11.902343-9.683594 21.585937-21.585938 21.585937zm0 0"/><path d="m318.828125 256.035156c0 20.179688 16.417969 36.597656 36.597656 36.597656 20.179688 0 36.597657-16.417968 36.597657-36.597656 0-20.179687-16.417969-36.597656-36.597657-36.597656-20.179687 0-36.597656 16.417969-36.597656 36.597656zm58.183594 0c0 11.902344-9.683594 21.582032-21.585938 21.582032-11.902343 0-21.585937-9.679688-21.585937-21.582032s9.683594-21.585937 21.585937-21.585937c11.902344 0 21.585938 9.683593 21.585938 21.585937zm0 0"/></svg>