<svg width="340" height="313" viewBox="0 0 340 313" fill="none" xmlns="http://www.w3.org/2000/svg">
<rect width="340" height="313" rx="35" fill="#1C232E"/>
<path d="M144.2 291.4C134.2 291.4 125.8 289.467 119 285.6C112.333 281.733 106.733 275.8 102.2 267.8L122.2 253C124.6 257.4 127.4 260.667 130.6 262.8C133.8 264.933 137.067 266 140.4 266C145.733 266 149.733 264.4 152.4 261.2C155.2 257.867 156.6 251.867 156.6 243.2V158.6H186V245.6C186 251.867 185.133 257.8 183.4 263.4C181.8 269 179.267 273.867 175.8 278C172.467 282.133 168.133 285.4 162.8 287.8C157.6 290.2 151.4 291.4 144.2 291.4ZM255.958 291.4C247.424 291.4 238.891 289.867 230.358 286.8C221.958 283.6 214.424 278.867 207.758 272.6L224.558 252.4C229.224 256.4 234.358 259.667 239.958 262.2C245.691 264.733 251.291 266 256.758 266C262.891 266 267.424 264.867 270.358 262.6C273.424 260.333 274.958 257.267 274.958 253.4C274.958 251.4 274.491 249.667 273.558 248.2C272.758 246.733 271.491 245.467 269.758 244.4C268.158 243.2 266.158 242.133 263.758 241.2C261.491 240.133 258.958 239 256.158 237.8L239.158 230.6C235.824 229.267 232.558 227.533 229.358 225.4C226.291 223.267 223.491 220.8 220.958 218C218.558 215.067 216.624 211.733 215.158 208C213.691 204.133 212.958 199.8 212.958 195C212.958 189.667 214.091 184.667 216.358 180C218.624 175.2 221.824 171.067 225.958 167.6C230.091 164 234.958 161.2 240.558 159.2C246.291 157.2 252.558 156.2 259.358 156.2C266.958 156.2 274.424 157.667 281.758 160.6C289.224 163.533 295.758 167.8 301.358 173.4L286.358 192C282.091 188.667 277.824 186.133 273.558 184.4C269.291 182.533 264.558 181.6 259.358 181.6C254.291 181.6 250.224 182.667 247.158 184.8C244.224 186.8 242.758 189.667 242.758 193.4C242.758 195.4 243.224 197.133 244.158 198.6C245.224 199.933 246.624 201.2 248.358 202.4C250.224 203.467 252.358 204.533 254.758 205.6C257.158 206.533 259.758 207.6 262.558 208.8L279.358 215.6C287.358 218.8 293.624 223.2 298.158 228.8C302.824 234.4 305.158 241.8 305.158 251C305.158 256.467 304.024 261.667 301.758 266.6C299.624 271.4 296.424 275.667 292.158 279.4C288.024 283 282.891 285.933 276.758 288.2C270.624 290.333 263.691 291.4 255.958 291.4Z" fill="#FF6D70"/>
</svg>
